<?xml version="1.0" encoding="UTF-8"?>
<!DOCTYPE svg  PUBLIC '-//W3C//DTD SVG 1.1//EN'  'http://www.w3.org/Graphics/SVG/1.1/DTD/svg11.dtd'>
<svg clip-rule="evenodd" fill-rule="evenodd" stroke-linejoin="round" stroke-miterlimit="2" version="1.1" viewBox="0 0 397 459" xml:space="preserve" xmlns="http://www.w3.org/2000/svg">
    <g transform="translate(-5524.8 -1995.3)">
        <g transform="matrix(.54793 0 0 .54793 3999.2 1656.3)">
            
            <text x="2783.99px" y="1444.26px" fill="white" font-family="'GillSans-Light', 'Gill Sans', sans-serif" font-size="50px" font-weight="300">Architectura<tspan x="3026.23px " y="1444.26px ">l</tspan> T<tspan x="3078.18px 3102.13px " y="1444.26px 1444.26px ">ec</tspan>hnical Lead Group</text>
        </g>
        <g transform="matrix(.5053 0 0 .47041 5035.6 1505.7)">
            
                
                    <g transform="translate(-36.897)">
                        <path d="m1169 1178.1c0.01 0.08 0.03 0.17 0.03 0.26 0.18 1.87-0.76 3.59-2.23 4.4-1.03 2.26-3.72 2.48-3.72 2.48l-4.13-4.48s0.03-1.51 0.28-2.61c0.23-1.02 0.65-1.93 1.12-2.57 2.83-3.76 5.45-7.7 8.42-11.37 5.5-6.81 11.97-12.98 16.9-20.25 4.43-6.55 7.45-14.28 13.34-19.8 5.44-5.11 10.21-7.7 14.56-13.98 2.57-3.72 4.47-8.12 6.68-12.27 2.59-4.88 5.57-9.43 9.92-12.69 2.34-1.75 5.91-6.74 9.31-9.56 2.33-1.93 4.71-2.98 6.75-2.98 2.27 0 4.12 1.99 4.12 4.43 0 2.45-1.85 4.43-4.12 4.43-0.23 0-0.42 0.21-0.67 0.37-0.75 0.47-1.51 1.14-2.28 1.89-3.12 3.03-6.26 7.09-8.39 8.68-3.33 2.5-5.5 6.08-7.48 9.82-2.37 4.46-4.45 9.17-7.22 13.16-4.74 6.85-9.83 9.81-15.76 15.37-5.42 5.08-8.02 12.32-12.1 18.34-5.06 7.47-11.68 13.85-17.33 20.85-2.11 2.6-4.04 5.36-6 8.08z" fill="#fff"/>
                    </g>
                    <g transform="translate(-36.897)">
                        <path d="m1260 1118.5c-1.69 1.57-5.45 5.08-5.76 5.47-5.99 7.59-9.08 17.02-15.21 24.52-0.91 1.11-4.76 5.2-6.93 8.2 0.01 0.03 0.02 0.06 0.03 0.1 0.51 2.38-0.87 4.76-3.08 5.31-2.86 0.72-4.37-0.61-5.13-1.61-0.75-0.99-1.28-2.4-0.89-4.3 0.22-1.09 1.16-3.01 2.68-5.06 2.38-3.21 6.18-7.34 7.13-8.49 6.1-7.46 9.15-16.85 15.12-24.4 0.53-0.68 6.98-7.16 8.94-8.29 2.01-1.16 3.6-0.55 4.31-0.15 0.99 0.56 1.73 1.43 2.09 2.75 0.17 0.63 0.38 1.77-0.24 3.34-0.57 1.42-1.75 2.35-3.06 2.61z" fill="#fff"/>
                    </g>
                    <g transform="translate(-36.897)">
                        <path d="m1245.4 1190.1c0.32 0.69 0.48 1.48 0.42 2.31-0.17 2.44-2.15 4.26-4.42 4.08-2.05-0.16-3.25-1.17-4-2.3-0.73-1.1-1.14-2.57-0.83-4.42 0.25-1.47 1.24-3.66 2.77-5.96 2.49-3.78 6.47-8.32 7.39-9.83 0.7-1.17 8.63-15.89 15.99-24.64 2.15-2.55 4.29-4.62 6.21-5.9 1.87-1.23 3.66-1.8 5.22-1.8 2.27 0 4.12 1.99 4.12 4.43 0 2.45-1.85 4.43-4.12 4.43-0.47 0-0.9 0.46-1.48 0.91-1.22 0.95-2.51 2.3-3.83 3.88-7.03 8.33-14.53 22.41-15.21 23.53-0.82 1.35-3.97 5.06-6.51 8.58-0.6 0.84-1.24 1.89-1.72 2.7z" fill="#fff"/>
                    </g>
                    <g transform="translate(-36.897)">
                        <path d="m1191.8 1093.4c0.24-0.22 0.48-0.44 0.7-0.66 3.5-3.45 7.93-8.52 8.21-8.84 5.69-6.45 13.88-20.48 21.42-28.32 4.16-4.34 8.37-6.81 11.9-6.81 2.28 0 4.12 1.98 4.12 4.43 0 2.44-1.84 4.42-4.12 4.42-1.08 0-2.18 0.78-3.42 1.77-1.86 1.48-3.8 3.58-5.76 5.97-6.56 8.01-13.28 19.11-18.15 24.63-0.3 0.34-4.95 5.66-8.63 9.28-0.15 0.14-0.28 0.28-0.42 0.41-0.39 0.58-0.91 1.07-1.53 1.4-1.16 1-2.16 1.73-2.81 2.06-2.45 1.21-4.21 0.2-5.13-0.72-1.35-1.35-1.68-2.94-1.19-4.7 0.2-0.72 0.74-1.84 1.94-2.76 0.69-0.52 1.9-1.12 2.87-1.56z" fill="#fff"/>
                    </g>
                    <g transform="translate(-36.897)">
                        <path d="m1172.5 1206.8c-3.68 4.65-6.98 10.19-10.91 14.37-0.46 0.49-6.07 5.92-9.36 9.11 0.28 0.5 0.48 1.07 0.56 1.68 0.31 2.42-1.26 4.67-3.51 5.01-3.61 0.54-5.47-0.77-6.31-1.78-1.26-1.51-1.92-4.08-0.18-7.18 2.35-4.2 12.26-12.35 13-13.14 5.09-5.4 9.14-13.05 14.28-18.19 1.41-1.41 2.71-1.33 3.38-1.26 1.6 0.17 2.97 1.04 3.58 3.18 0.13 0.47 0.28 1.34 0.07 2.47-0.14 0.73-0.61 2.15-0.83 2.79-0.59 1.77-2.12 2.89-3.77 2.94z" fill="#fff"/>
                    </g>
                    <g transform="translate(-36.897)">
                        <path d="m1142.5 1265c-0.61 0.57-1.27 1.23-1.82 1.88-4.1 4.72-8.97 11.98-11.72 16.67-0.84 1.44-1.68 3.15-1.76 3.32-0.65 2.28-2.87 3.61-5.03 2.98-2.19-0.64-3.49-3.07-2.89-5.43 0.51-2.02 5.82-11.16 11.38-18.6 3.98-5.31 8.18-9.66 10.67-10.74 2.51-1.08 4.49-0.47 5.89 0.9 0.96 0.92 1.95 2.59 1.95 5.54 0 2.44-1.85 4.42-4.12 4.42-0.96 0-1.85-0.35-2.55-0.94z" fill="#fff"/>
                    </g>
                    <g transform="translate(-36.897)">
                        <path d="m1117.9 1343.6c-0.07 0.04-0.17 0.09-0.24 0.13-5.23 2.78-23.24 16.74-24.98 18.67-1.46 1.62-8.52 9.64-10.85 13.47-0.02 0.35-0.07 0.71-0.17 1.06-0.65 2.34-2.94 3.68-5.12 2.99-1.28-0.4-2.12-1.24-2.65-2.35-0.4-0.82-0.7-1.99-0.34-3.51 0.25-1.09 1.46-3.35 3.33-5.88 3.29-4.45 8.59-10.52 9.89-11.96 1.68-1.85 17.23-14.09 24.66-18.89 2.77-1.79 4.95-2.5 5.69-2.5 2.27 0 4.12 1.98 4.12 4.43 0 2.15-1.44 3.95-3.34 4.34zm-38 28.32c-0.3-0.2-0.64-0.37-1.03-0.49 0.38 0.11 0.72 0.28 1.03 0.49z" fill="#fff"/>
                    </g>
                    <g transform="translate(-36.897)">
                        <path d="m1028.1 1432.1c0.29-0.45 0.61-0.89 0.95-1.33 3.1-3.96 8.53-8.25 10.53-10.15 14.67-13.97 30.99-28.4 48.24-38.26 0.58-0.32 1.16-1.18 1.88-2.03 1.21-1.45 2.51-3.04 3.79-4.21 1.86-1.71 3.83-2.59 5.56-2.59 2.28 0 4.12 1.98 4.12 4.43 0 2.29-1.62 4.17-3.7 4.4-0.28 0.26-1.53 1.39-2.23 2.21-1.99 2.32-4.01 4.73-5.55 5.61-16.69 9.54-32.45 23.55-46.64 37.07-1.19 1.13-3.7 3.15-6.11 5.43 0.07 0.52 0.05 1.07-0.06 1.62-0.46 2.14-2.29 3.57-4.28 3.44l-0.06 0.06c-0.17 0.26-0.29 0.46-0.34 0.53-0.09 11.85-8.13 5.13-8.25 0.02 0-0.32 0.03-1.89 0.31-3.06 0.31-1.28 0.91-2.27 1.5-2.86 0.11-0.1 0.22-0.22 0.34-0.33z" fill="#fff"/>
                    </g>
                    <g transform="translate(-36.897)">
                        <path d="m1071 1441c-0.78 2.3-3.14 3.48-5.28 2.65-2.14-0.84-3.24-3.38-2.46-5.68 1.12-3.32 3.92-7.49 7.75-11.76 8.15-9.08 20.96-19.02 28.75-22.91 2.06-1.03 4.51-0.07 5.47 2.15 0.96 2.21 0.07 4.85-2 5.88-6.11 3.06-15.58 10.23-22.86 17.45-4.49 4.44-8.21 8.81-9.37 12.22z" fill="#fff"/>
                    </g>
                    <g transform="translate(-36.897)">
                        <path d="m1120 1424.9-3.92 4.03c-1.35 2.06-6.22 6.65-9.48 10 0.14 1.79-0.75 3.58-2.36 4.39-1.94 0.97-3.19 1.13-3.76 1.11-1.17-0.04-1.98-0.49-2.55-0.97-1.14-0.94-1.86-2.29-1.63-4.24 0.09-0.69 0.69-2.38 2.3-4.2 2.69-3.03 9.39-8.88 10.63-11.01 0.41-0.71 5.83-6.76 7.96-7.81 2.04-0.99 3.64-0.38 4.58 0.3 0.97 0.7 1.93 1.86 1.93 3.99 0 2.29-1.63 4.18-3.7 4.41zm-4.33-2.99c-0.14-0.45-0.22-0.92-0.22-1.42 0 0.55 0.08 1.02 0.22 1.42z" fill="#fff"/>
                    </g>
                    <g transform="translate(-36.897)">
                        <path d="m1147.3 1296.4c0.01 0.05 0.03 0.11 0.04 0.16 0.62 2.35-0.66 4.8-2.84 5.47-2.2 0.66-4.39 2.19-6.43 3.68-2.63 1.91-5.05 3.82-6.97 4.78-1.9 0.95-6.52 3.91-7.21 4.24-2.92 1.42-4.71-0.84-4.98-1.2-0.76-0.99-1.56-2.62-0.46-4.87 0.07-0.14 0.43-0.95 1.7-1.9 5.8-4.36 9.19-8.9 12.78-12.33 4.4-4.2 9.01-7.06 16.97-7.06 2.27 0 4.12 1.99 4.12 4.43 0 2.45-1.85 4.43-4.12 4.43-0.93 0-1.8 0.06-2.6 0.17z" fill="#fff"/>
                    </g>
                    <g transform="translate(-36.897)">
                        <path d="m1173.7 1295.2c-3.51 2.27-9.41 8.23-12.83 12.85-0.88 1.19-1.81 2.92-2 3.25-0.2 2.25-1.96 4.01-4.1 4.01-2.27 0-4.12-1.99-4.12-4.43 0-1.75 1.25-4.94 3.77-8.35 4.42-5.96 12.45-13.64 16.44-15.75 2.84-1.5 5.07-0.85 6.17-0.02 1.02 0.78 1.85 1.97 1.99 3.87 0.16 2.44-1.54 4.57-3.81 4.75-0.52 0.04-1.04-0.02-1.51-0.18z" fill="#fff"/>
                    </g>
                    <g transform="translate(-36.897)">
                        <path d="m1184.4 1302.4c0.48-0.54 1-1.14 1.56-1.81 2.51-3.02 4.4-6 6.46-8.3 2.74-3.06 5.77-5.11 10.06-5.48 2.27-0.2 4.26 1.62 4.44 4.05 0.18 2.44-1.51 4.58-3.78 4.77-2.62 0.23-4.17 1.97-5.81 4.04-1.61 2.02-3.2 4.38-5.18 6.76-0.17 1.83-1.4 3.43-3.16 3.87-0.1 0.02-0.2 0.05-0.31 0.07-1.25 1.32-2.03 1.99-2.45 2.29-1.25 0.89-2.2 0.89-2.64 0.88-1.7-0.03-2.73-0.91-3.39-1.97-0.51-0.79-1.28-2.55-0.18-4.74 1.43-2.88 2.62-3.83 4.38-4.43z" fill="#fff"/>
                    </g>
                    <g transform="translate(-36.897)">
                        <path d="m1232.7 1294.8c-1.24 1.06-6.41 5.52-10.05 9.3-4.15 4.31-8.14 8.72-9 10.43-1.07 2.15-3.57 2.96-5.58 1.81-2-1.16-2.76-3.85-1.68-6 1.02-2.04 5.58-7.47 10.53-12.61 4.92-5.11 10.21-9.93 12.38-11.09 2.78-1.5 4.75-0.26 5.59 0.6 1.63 1.7 1.68 4.51 0.1 6.27-0.64 0.7-1.44 1.14-2.29 1.29z" fill="#fff"/>
                    </g>
                    <g transform="translate(-36.897)">
                        <path d="m1266.9 1292.3c-0.4 1.99-2.05 3.49-4.03 3.49-0.77 0-1.49-0.22-2.1-0.62-3 2.77-6.19 6.13-6.83 6.77-2.29 2.29-6.48 4.95-9.93 7.37-0.45 0.31-0.92 0.67-1.38 1.03 0.47 0.89 0.66 1.96 0.47 3.04-0.44 2.4-2.61 3.96-4.84 3.5-3.82-0.81-5.16-2.94-5.6-4.47-0.43-1.52-0.31-3.35 0.93-5.24 0.98-1.49 3.2-3.39 5.92-5.29 3.05-2.13 6.79-4.41 8.81-6.42 1.03-1.03 8.2-8.51 11.69-10.79 1.38-0.9 2.58-1.22 3.34-1.26 1.44-0.06 2.51 0.49 3.31 1.29 0.9 0.9 1.46 2.12 1.43 3.69-0.01 0.87-0.91 3.2-1.19 3.91z" fill="#fff"/>
                    </g>
                    <g transform="translate(-36.897)">
                        <path d="m1275.1 1295.2c0.4-0.65 0.97-1.19 1.68-1.55 3.25-1.62 4.94 0.82 5.27 1.29 0.63 0.91 1.54 2.71 0.2 5.04-0.14 0.24-0.47 0.73-1.03 1.27-0.57 0.55-1.82 1.6-2.34 2.11-1.89 1.89-6.57 7.27-8.26 9.98-0.06 0.46-0.19 0.91-0.38 1.35-1.01 2.19-3.48 3.1-5.52 2.02-1.27-0.67-3.67-3.5-1.4-7.54 1.68-2.99 7.6-9.95 9.95-12.3 0.34-0.34 1.22-1.13 1.83-1.67zm-5.53 14.53c-0.33-0.39-0.73-0.72-1.21-0.97 0.47 0.25 0.88 0.58 1.21 0.97zm9.69-7.7c0.3-0.05 0.63-0.16 1-0.34-0.33 0.16-0.66 0.27-1 0.34z" fill="#fff"/>
                    </g>
                    <g transform="translate(-36.897)">
                        <path d="m1283.8 1180.3c0.16-0.35 0.38-0.68 0.64-0.99 1.63-1.89 2.79-2.23 2.87-2.25 1.9-0.51 3.12 0.31 3.91 1.14 0.55 0.59 2.05 2.31 0.83 5.07-0.06 0.12-0.2 0.45-0.52 0.9-0.79 1.09-7.79 9.78-9.61 13.26-5.44 10.44-12.43 19.99-17.57 30.26-0.74 1.48-2.75 3.51-4.68 5.47-0.61 0.62-1.46 1.66-1.74 2.01-0.34 2.08-2.03 3.66-4.06 3.66-2.28 0-4.12-1.99-4.12-4.43 0-1.58 0.72-3.57 2.25-5.47 0.96-1.2 2.26-2.46 3.45-3.65 0.68-0.68 1.37-1.25 1.64-1.78 5.15-10.32 12.17-19.91 17.64-30.4 1.49-2.86 6.7-9.73 9.07-12.8z" fill="#fff"/>
                    </g>
                    <g transform="translate(-36.897)">
                        <path d="m1270.9 1273.6c-0.6 1.66-2.09 2.83-3.84 2.83-2.28 0-4.13-1.98-4.13-4.43 0-0.33 0.15-1.68 1.2-3.48 3.26-5.57 19.67-29.4 21.55-32.31 2.47-3.81 5.15-14.35 8.72-20.55 2.37-4.11 5.33-6.54 8.26-6.85 2.27-0.23 4.29 1.55 4.51 3.98s-1.44 4.6-3.7 4.84c-0.36 0.04-0.54 0.49-0.85 0.88-0.91 1.12-1.73 2.66-2.52 4.37-2.98 6.45-5.44 14.98-7.65 18.39-1.86 2.88-18.11 26.46-21.34 31.97-0.07 0.11-0.15 0.26-0.21 0.36z" fill="#fff"/>
                    </g>
                    <g transform="translate(-36.897)">
                        <path d="m1309.1 1251.7c0.21-0.73 0.59-1.42 1.14-1.98 1.07-1.06 2.23-1.87 3.33-2.86 0.43-0.43 0.76-0.75 0.88-0.86 2.3-2.15 4.61-0.64 4.69-0.6 1.06 0.61 1.79 1.56 2.08 2.94 0.06 0.31 0.6 2.02-0.92 3.89-0.03 0.03-0.18 0.21-0.52 0.55-0.18 0.18-0.36 0.35-0.54 0.52-0.82 0.8-2.2 2.16-2.76 2.77-1.16 1.27-1.89 2.61-2.63 3.91-1.06 1.85-2.14 3.67-3.75 5.41-6.28 6.77-13.71 12.29-19.27 19.7-0.34 0.46-4.34 5.2-6.51 8.65 0.04 0.1 0.07 0.19 0.09 0.29 0.66 2.34-0.58 4.81-2.76 5.52-2.95 0.95-4.57-0.36-5.4-1.38-0.78-0.95-1.36-2.35-1.05-4.28 0.19-1.2 1.12-3.3 2.6-5.55 2.42-3.7 6.26-8.34 6.61-8.8 5.74-7.66 13.36-13.42 19.86-20.41 1.11-1.2 1.81-2.49 2.54-3.78 0.7-1.22 1.41-2.44 2.29-3.65z" fill="#fff"/>
                    </g>
                    <g transform="translate(-36.897)">
                        <path d="m1292 1311c0.48-0.52 0.97-1.05 1.45-1.58 3.31-3.65 6.54-7.47 9.73-10.07 5.65-4.58 9.17-10.5 14.45-15.45 0.44-0.41 2.36-2.73 3.69-4.43 0.21-0.68 0.58-1.31 1.1-1.84 1.74-1.73 3.06-1.76 3.3-1.77 1.78-0.09 2.87 0.78 3.59 1.9 0.42 0.64 1.33 2.24 0.32 4.51-0.37 0.84-5.7 7.48-6.58 8.3-5.43 5.09-9.09 11.13-14.9 15.85-3.53 2.87-7.07 7.43-10.78 11.32-2.91 3.05-5.93 5.71-9.04 7.26-3.48 1.74-5.2-0.8-5.69-1.68-0.4-0.73-1.25-2.84 0.36-5.24 0.73-1.1 3.23-3.69 5.28-5.25 1.3-0.99 2.54-1.58 3.3-1.75 0.14-0.03 0.28-0.06 0.42-0.08z" fill="#fff"/>
                    </g>
                    <g transform="translate(-36.897)">
                        <path d="m1336.6 1306.2c0.13-0.22 0.27-0.43 0.42-0.63 1.02-1.34 2.42-2.23 4.35-2.23 2.07 0 2.99 1.08 3.41 1.61 1.1 1.38 1.62 3.19 0.33 5.37-0.23 0.38-0.73 1.04-1.59 1.64-0.11 0.08-0.26 0.18-0.44 0.3-0.56 1.16-1.56 1.96-2.69 2.26-1.94 2.35-3.58 4.36-5.99 6.76-9.81 9.81-18.04 21.66-28.93 30.5-0.12 1.2-0.68 2.34-1.66 3.11-2.47 1.95-5.01 1.36-6.2 0.58-0.86-0.56-1.45-1.34-1.81-2.22-0.55-1.38-1.05-4.25 2.18-6.6 12-8.73 20.45-21.5 30.8-31.85 2.65-2.65 4.29-4.79 6.59-7.54 0.23-0.28 0.7-0.66 1.23-1.06z" fill="#fff"/>
                    </g>
                    <g transform="translate(-36.897)">
                        <path d="m1343.1 1336.8c0.75-1 1.91-1.65 3.21-1.65 1.45 0 2.37 0.68 3 1.39 0.28 0.32 2.45 3.57-0.32 6.48-1.55 1.63-10.79 9.8-11.73 10.67-5.82 5.41-10.7 12.41-16.58 18.05-2.49 2.4-6.2 6.27-9.03 9.26-0.02 0.05-0.05 0.11-0.07 0.16-0.37 0.82-1.04 1.76-1.9 2.58-1.25 1.2-2.88 2.22-2.88 2.22-1.79 1.12-4.07 0.64-5.34-1.12-1.26-1.76-1.11-4.26 0.35-5.83 0 0 8.74-9.42 13.38-13.87 5.91-5.68 10.83-12.71 16.68-18.15 0.85-0.79 10.06-9.14 11.23-10.19zm-0.89 3.32c0.08 0.82 0.37 1.5 0.76 2.07-0.4-0.6-0.67-1.31-0.76-2.07zm1.38 2.79c0.6 0.59 1.46 1.1 2.72 1.1-1.05 0-2-0.42-2.72-1.1z" fill="#fff"/>
                    </g>
                    <g transform="translate(-36.897)">
                        <path d="m1297.8 1421.2c0.95 1.97 0.39 4.37-1.26 5.64 0 0-3.73 3.26-5.36 4.3-1.21 0.76-2.26 0.98-2.82 0.99-1.32 0.04-2.28-0.48-2.97-1.14-0.79-0.75-1.43-1.82-1.43-3.44 0-1.85 0.99-4.45 2.95-7.03 2.95-3.9 8.07-8.38 9.61-9.91 13.75-13.76 29.57-25.64 44.3-37.92 0.38-0.32 0.73-0.96 1.19-1.68 1.19-1.87 2.56-4.22 4.07-6.19 2.47-3.21 5.47-5.29 8.52-5.29 2.28 0 4.12 1.98 4.12 4.43 0 2.44-1.84 4.43-4.12 4.43-0.49 0-0.81 0.53-1.23 0.97-0.69 0.72-1.32 1.59-1.93 2.5-2.15 3.19-4.08 6.59-5.56 7.82-14.54 12.12-30.17 23.84-43.74 37.41-0.77 0.76-2.49 2.3-4.34 4.11z" fill="#fff"/>
                    </g>
                    <g transform="translate(-36.897)">
                        <path d="m1369.9 1389.8c-0.38 2.02-2.04 3.54-4.04 3.54h-0.01c-0.43 0.53-0.82 0.98-1.09 1.26-3.51 3.51-6.65 6.49-10.91 9.33-6.53 4.35-20.49 13.26-25.29 18.06l-0.26 0.26c0.01 0.04 0.02 0.07 0.03 0.11 0.58 2.36-0.74 4.79-2.94 5.41-0.41 0.12-0.92 0.6-1.52 1.04-1.09 0.82-2.24 1.75-3.22 2.44-1.71 1.22-3.3 1.71-4.19 1.71-1.52 0-2.47-0.64-3.12-1.31-0.68-0.69-1.13-1.57-1.3-2.64-0.11-0.76-0.08-1.8 0.39-2.95 0.5-1.23 2.01-3.14 2.92-3.92 2.64-2.26 5.1-4.14 7.59-6.63 5.05-5.05 19.69-14.53 26.56-19.11 3.77-2.51 6.53-5.18 9.64-8.28 1.02-1.02 2.68-3.63 3.75-4.77 0.9-0.97 1.79-1.45 2.37-1.64 1.61-0.54 2.92-0.12 3.95 0.73 0.72 0.59 1.75 1.71 1.75 4.03 0 0.56-0.09 1.18-0.32 1.83-0.12 0.35-0.53 1.11-0.74 1.5z" fill="#fff"/>
                    </g>
                    <g transform="translate(-36.897)">
                        <path d="m1385.9 1410c-0.39 0.23-2.5 1.53-4.07 2.79-5.02 4.01-11.82 10.58-14.96 14.58 0.52 2.26-0.69 4.6-2.79 5.29-3.77 1.26-5.49-0.91-6.13-2.27-0.49-1.02-0.91-3.13 0.54-5.7 2.2-3.9 11.65-13.6 18.42-19.01 2.22-1.77 4.18-3.1 5.56-3.75 1.18-0.57 2.18-0.76 2.9-0.76 2.28 0 4.13 1.99 4.13 4.43 0 2.26-1.57 4.12-3.6 4.4z" fill="#fff"/>
                    </g>
                    <g transform="translate(-36.897)">
                        <path d="m1397.4 1427.9c0.39 2.41-1.11 4.71-3.35 5.13s-4.38-1.19-4.78-3.6c-0.35-2.14 0.14-4.57 1.39-6.96 2.04-3.89 6.24-7.8 8.71-9.45 1.94-1.29 4.48-0.65 5.68 1.43s0.6 4.81-1.33 6.1c-1.45 0.96-3.78 3.05-5.29 5.3-0.33 0.48-0.61 0.97-0.82 1.45-0.09 0.22-0.25 0.4-0.21 0.6z" fill="#fff"/>
                    </g>
                    <g transform="translate(33.269)">
                        <path d="m1404.2 1053c-0.12-0.23-0.23-0.48-0.31-0.74-0.5-1.63-0.07-3.35 0.97-4.5 0.36-0.84 1.04-1.73 2.42-2.21 0.24-0.08 0.65-0.22 1.28-0.22 2.76 0 4.17 1.36 4.92 2.7 0.71 1.27 1.06 3.13 0.21 5.43-1.05 2.88-5.41 8.16-9.88 13.29-2.34 2.69-4.68 5.37-6.34 7.61-0.09 0.12-0.17 0.23-0.26 0.34 0.23 0.55 0.35 1.15 0.35 1.78 0 2.45-1.85 4.43-4.12 4.43-1.28 0-2.44-0.04-3.03-0.3-1.05-0.47-1.8-1.23-2.3-2.31-0.34-0.77-0.8-2.12-0.07-4.32 0.49-1.44 1.71-3.49 3.47-5.79 3.22-4.19 8.38-9.68 11.84-14.05 0.28-0.35 0.57-0.74 0.85-1.14z" fill="#fff"/>
                    </g>
                    <g transform="translate(33.269)">
                        <path d="m1439 1054.2c-3.02 3.36-9.48 12.43-10.42 13.4-0.81 0.85-21.67 24.89-29.99 36.26-1.19 1.63-2.36 3.52-2.66 4-0.45 1.92-2.07 3.34-3.99 3.34-2.28 0-4.13-1.98-4.13-4.43 0-0.56 0.1-1.38 0.51-2.36 0.47-1.16 1.8-3.31 3.79-6.03 8.52-11.64 29.91-36.27 30.74-37.14 0.88-0.92 6.71-9.11 9.84-12.75 1.35-1.56 2.53-2.48 3.09-2.75 1.94-0.93 3.39-0.27 4.3 0.44 0.85 0.67 1.94 1.86 1.74 4.21-0.15 1.81-1.3 3.28-2.82 3.81zm-5.37-3.58c-0.04-0.34-0.05-0.68-0.02-1.02-0.03 0.37-0.02 0.71 0.02 1.02z" fill="#fff"/>
                    </g>
                    <g transform="translate(33.269)">
                        <path d="m1408.9 1118.7c-0.64 1.64-1.95 4.86-3.06 6.39-3.34 4.6-6.82 8.72-9.98 13.46-1.32 1.99-3.9 2.45-5.75 1.03-1.85-1.43-2.28-4.2-0.95-6.18 3.23-4.85 6.77-9.06 10.18-13.76 0.89-1.23 1.5-3.28 2.02-4.62 0.49-1.26 1-2.2 1.36-2.67 1.19-1.51 2.55-1.79 3.58-1.74 1.17 0.05 2.7 0.48 3.71 2.64 0.89 1.91 0.38 4.18-1.11 5.45zm-5.48-0.32c-0.31-0.33-0.57-0.72-0.78-1.16 0.23 0.49 0.5 0.87 0.78 1.16z" fill="#fff"/>
                    </g>
                    <g transform="translate(33.269)">
                        <path d="m1467.8 1049.9c2.17-0.73 4.48 0.58 5.16 2.91 0.67 2.34-0.54 4.82-2.72 5.55-2.22 0.74-6.75 4.15-11.2 8.06-4.49 3.94-8.9 8.41-10.51 11.62-1.08 2.16-3.58 2.97-5.59 1.81-2-1.16-2.76-3.84-1.68-6 1.95-3.9 7.12-9.51 12.57-14.29 5.48-4.82 11.23-8.75 13.97-9.66z" fill="#fff"/>
                    </g>
                    <g transform="translate(33.269)">
                        <path d="m1499.2 1059c-6.89 6.28-20.68 18.83-21.58 19.53-0.15 0.12-0.31 0.23-0.47 0.33-0.73 1.22-2.01 2.02-3.46 2.02-2.27 0-4.12-1.98-4.12-4.43 0-2.71 0.96-3.57 1.78-4.26 0.23-0.19 0.66-0.23 1.44-0.84 1.22-0.95 23.44-21.82 26.07-23.49 2.22-1.41 3.92-0.41 4.4-0.11 0.88 0.54 1.5 1.34 1.85 2.41 0.2 0.64 0.35 1.52 0.07 2.64-0.08 0.32-0.26 0.93-0.79 1.69-0.33 0.47-1.21 1.52-2.83 3.26-0.66 0.71-1.49 1.13-2.36 1.25z" fill="#fff"/>
                    </g>
                    <g transform="translate(33.269)">
                        <path d="m1519.4 1056c1.42-1.92 4.01-2.23 5.79-0.71s2.08 4.31 0.66 6.23l-0.05 0.06c-1.42 1.91-4.01 2.22-5.79 0.7s-2.08-4.31-0.66-6.22l0.05-0.06z" fill="#fff"/>
                    </g>
                    <g transform="translate(33.269)">
                        <path d="m1523.1 1059.1c-0.84-1.3-0.99-3.03-0.27-4.54 0.84-1.75 2.88-3.6 5.22-4.73 2.31-1.11 4.81-1.46 6.17-1.19 1.74 0.36 2.83 1.4 3.44 2.58 0.64 1.23 1.21 3.37-0.63 6.12-3.86 5.8-12.24 10.69-17.46 15.04-1.52 1.26-4.66 3.92-6.63 5.79-0.32 1.19-1.1 2.23-2.23 2.79-3.48 1.74-5.36-0.51-5.77-1.08-0.68-0.95-1.5-2.67-0.35-4.97 0.21-0.43 0.77-1.25 1.69-2.19 1.95-2 6.29-5.72 8.23-7.34 2.4-1.99 5.58-4.05 8.59-6.28z" fill="#fff"/>
                    </g>
                    <g transform="translate(33.269)">
                        <path d="m1570.9 1055.8c-2 3.3-4.87 7.54-8.2 10.85-10.59 10.56-18.13 21.15-27.44 32.46-3.37 4.08-7.42 9.08-12.09 11.92-0.05 1.11-0.49 2.19-1.3 3.01-1.84 1.84-3.4 1.68-4.01 1.59-1.21-0.18-2.13-0.8-2.8-1.76-0.46-0.65-0.9-1.59-0.88-2.92 0.02-0.84 0.61-2.91 1.53-4.48 0.85-1.43 1.97-2.39 2.62-2.71 4.26-2.13 7.75-6.88 10.75-10.52 9.5-11.54 17.21-22.31 28.01-33.08 6.01-5.99 9.68-14.37 10.37-15.27 1.39-1.8 2.95-1.73 3.61-1.68 1.43 0.13 2.78 0.82 3.51 2.79 0.15 0.4 0.34 1.03 0.3 1.94-0.02 0.41-0.33 1.93-1.16 4.88-0.42 1.49-1.52 2.58-2.82 2.98z" fill="#fff"/>
                    </g>
                    <g transform="translate(33.269)">
                        <path d="m1560.6 1100.9c-0.53-1.23-0.58-2.4-0.36-3.48 0.28-1.39 1.11-2.81 2.62-3.85 1.81-1.25 5.13-1.99 7.42-1.82 1.83 0.14 3.2 0.9 3.93 1.63l-2.81 7.67 4.11-4.04c-0.03 0.37-0.08 1.37-0.99 2.51-0.02 0.03-0.17 0.23-0.49 0.51-0.01 0.01-0.07 0.07-0.18 0.16-0.78 0.67-4.81 4.18-7.1 6.62-3.73 4-7.36 8.1-11.09 12.1-13.86 14.86-24.89 33.46-38.42 47-1.67 1.66-4.28 1.56-5.83-0.23s-1.45-4.59 0.21-6.26c13.47-13.46 24.42-32 38.22-46.78 3.62-3.88 7.14-7.85 10.76-11.74z" fill="#fff"/>
                    </g>
                    <g transform="translate(33.269)">
                        <path d="m1510.2 1199.9c2.07-1.72 13.93-11.58 15.05-12.71 8.88-8.88 27.19-31.98 39.39-38.08 2.06-1.03 4.52-0.07 5.48 2.15 0.96 2.21 0.06 4.85-2 5.88-11.62 5.81-28.79 28.08-37.25 36.54-1.43 1.43-14.9 13.43-17.98 14.72-3.52 1.48-5.3-0.89-5.9-2.47-0.85-2.27 0.18-4.85 2.29-5.76 0.3-0.13 0.61-0.22 0.92-0.27zm3.36 1.06c0.46 0.45 0.84 1 1.08 1.66-0.25-0.67-0.61-1.22-1.08-1.66z" fill="#fff"/>
                    </g>
                    <g transform="translate(33.269)">
                        <path d="m1510 1241.8c0.8-0.69 7.05-6.08 7.99-6.89 9.57-8.27 18.25-16.8 26.92-25.93 1.38-1.44 11.6-9.25 16.05-12.64 0.35-1.32 1.25-2.45 2.54-2.96 3.6-1.45 5.49 0.39 5.92 0.91 0.77 0.93 2.14 3.52-0.23 6.38-2.09 2.51-16.7 12.74-18.51 14.64-8.86 9.33-17.74 18.05-27.53 26.51-1.06 0.92-7.23 6.38-8.62 7.39-2.05 1.48-3.77 0.74-4.09 0.6-2.12-0.89-3.16-3.47-2.32-5.74 0.37-1.01 1.05-1.8 1.88-2.27z" fill="#fff"/>
                    </g>
                    <g transform="translate(33.269)">
                        <path d="m1561.6 1252.8c-3.24 2.39-8.12 6.26-9.48 7.28-11.23 8.42-21.18 17.45-31.85 26.53-0.65 1.38-1.95 2.35-3.48 2.43-2.68 0.14-3.91-1.41-4.08-1.63-0.22-0.31-2.32-3.72 1.23-6.72 11.27-9.53 21.67-19.03 33.46-27.88 1.61-1.21 8.09-6.33 11.18-8.5 1.31-0.92 2.32-1.41 2.69-1.52 2.94-0.88 4.32 1.09 4.87 2.26 0.36 0.76 0.64 1.77 0.34 3.09-0.08 0.33-0.5 1.67-2.31 3.48-0.73 0.73-1.65 1.12-2.57 1.18z" fill="#fff"/>
                    </g>
                    <g transform="translate(33.269)">
                        <path d="m1556.9 1286.4c0.52-1.8 2.09-3.11 3.94-3.11 2.59 0 3.72 1.44 4.23 2.31 0.69 1.19 1.4 4.09-1.4 6.7-3.38 3.15-18.8 11.19-19.98 11.89-7.92 4.75-16.02 10.19-22.64 16.88 0.42 1.05 0.62 2.46 0.3 4.29-0.42 2.4-2.57 3.99-4.81 3.54-0.53-0.11-1.01-0.32-1.44-0.61-0.34 0.2-0.67 0.37-0.93 0.47-0.85 0.36-1.56 0.39-1.95 0.37-2.32-0.12-3.34-1.61-3.79-3.13-0.21-0.73-0.64-2.34 0.79-4.25 7.9-10.53 19.3-18.6 30.44-25.29 0.91-0.54 13.09-7.64 17.24-10.06z" fill="#fff"/>
                    </g>
                    <g transform="translate(33.269)">
                        <path d="m1519.4 1344.7c-1.66 1.31-4.02 1.1-5.46-0.56-1.55-1.79-1.45-4.59 0.21-6.26-0.05 0.05-0.09 0.11-0.09 0.11s1.3-1.25 1.76-1.45c0.41-0.18 0.97-0.53 2.55-0.25 2.25 0.4 3.77 2.69 3.4 5.1-0.24 1.51-1.16 2.72-2.37 3.31z" fill="#fff"/>
                    </g>
                    <g transform="translate(33.269)">
                        <path d="m1509.5 1359c1.64-1.33 5.45-4.43 6.95-5.68 9.01-7.58 17.33-15.96 27.09-22.46 2.54-1.7 12.25-9.52 13.68-10.26 1.71-0.89 2.98-0.39 3.44-0.2 1.31 0.55 2.11 1.55 2.48 2.91 0.18 0.67 0.3 1.58-0.07 2.73-0.09 0.27-0.51 1.31-1.95 2.75-0.58 0.58-1.28 0.95-2.02 1.1-3.07 2.39-9.41 7.29-11.22 8.49-9.5 6.34-17.57 14.54-26.35 21.91-2.02 1.7-7.34 6.04-8.11 6.61-2.72 2.03-5.01-0.11-5.14-0.24-0.83-0.77-1.4-1.82-1.42-3.28 0-0.45-0.05-1.61 0.98-2.92 0.05-0.06 0.35-0.42 1.05-1.03 0.2-0.17 0.4-0.31 0.61-0.43z" fill="#fff"/>
                    </g>
                    <g transform="translate(33.269)">
                        <path d="m1508.3 1393.2c1.45-1.38 11.87-11.31 12.47-11.91 3.47-3.47 24.3-22.63 34.3-30.16 2-1.5 3.63-2.58 4.71-3.1 1.12-0.55 2.03-0.7 2.62-0.7 2.27 0 4.12 1.99 4.12 4.43 0 2.17-1.46 3.98-3.38 4.36-0.51 0.35-4.1 2.78-7.36 5.44-10.48 8.55-26.43 23.25-29.39 26.22-0.72 0.71-11.31 11.53-14.18 13.28-2.12 1.29-3.81 0.7-4.51 0.32-2.03-1.1-2.85-3.76-1.83-5.95 0.52-1.1 1.41-1.88 2.43-2.23z" fill="#fff"/>
                    </g>
                    <g transform="translate(33.269)">
                        <path d="m1463.6 1431.2c1.51-1.19 6-4.71 7.38-5.61 6.33-4.09 13.95-10.26 21.36-12.11 2.22-0.56 4.44 0.92 4.95 3.31 0.52 2.38-0.86 4.76-3.08 5.31-6.62 1.66-13.31 7.42-18.97 11.08-1.7 1.1-6.63 5.21-7.98 6.07-0.94 0.59-1.68 0.71-2.01 0.74-2.16 0.21-3.31-0.98-3.96-2.15-0.34-0.62-1.41-2.57 0.29-5.05 0.52-0.77 1.23-1.31 2.02-1.59zm5.38 4.85c-0.09 0.69-0.34 1.37-0.75 1.97 0.5-0.73 0.7-1.41 0.75-1.97z" fill="#fff"/>
                    </g>
                    <g transform="translate(33.269)">
                        <path d="m1562.8 1378.8c-0.28 0.18-1.61 1.02-2.45 1.72-2.7 2.27-5.6 5.33-7.06 6.5-8.39 6.72-14.02 14.71-23.64 20.48-7.06 4.24-14.39 6.49-20.38 12.48-4.7 4.71-10.34 8.63-15.22 13.21-0.46 0.43-4.47 5.08-6.02 6.88-0.08 0.11-0.16 0.21-0.25 0.31-7.61 8.69-9.49-1.97-6.46-5.56 0.88-1.04 6.68-7.72 7.31-8.31 4.82-4.51 10.38-8.37 15.02-13.01 6.5-6.49 14.32-9.14 21.98-13.73 9.28-5.57 14.64-13.37 22.74-19.86 1.71-1.36 5.38-5.31 8.41-7.57 2.15-1.59 4.22-2.38 5.65-2.38 2.27 0 4.12 1.99 4.12 4.43 0 2.31-1.65 4.21-3.75 4.41z" fill="#fff"/>
                    </g>
                    <g transform="translate(33.269)">
                        <path d="m1529 1430.5c6.3-4.22 12.53-10.22 17.06-14.52 3.93-3.73 7.45-7.97 11.75-11.24 0.47-0.5 2.87-2.98 4.01-3.92 1.18-0.97 2.27-1.29 2.78-1.35 2.29-0.28 3.63 0.9 4.35 2.7 0.23 0.56 0.83 2.16-0.39 4.6-0.62 1.24-1.71 2.03-2.91 2.26-1.17 1.15-2.76 2.69-2.9 2.8-4.14 3.11-7.47 7.21-11.22 10.78-7.25 6.88-18.56 17.35-28.23 20.57-2.46 0.82-3.85-0.3-4.5-0.95-1-0.99-1.77-2.5-1.21-4.66 0.23-0.89 1.63-3.16 3.7-4.87 2.03-1.69 4.57-2.73 6.16-2.63 0.56 0.03 1.08 0.18 1.55 0.43z" fill="#fff"/>
                    </g>
                    <g transform="translate(33.269)">
                        <path d="m1560.2 1435.8c0.81-0.58 2.3-1.69 3.47-2.71 5.73-5.04 13.92-13.35 19.68-17.21 2.34-1.57 4.45-2.47 6.03-2.66 1.34-0.16 2.5 0.07 3.48 0.56 2.06 1.03 2.95 3.66 1.99 5.88-0.84 1.94-2.83 2.92-4.7 2.44-0.51 0.25-2.19 1.09-3.37 1.95-6.75 4.89-16.18 14.9-21.26 18.66-2.28 1.69-4.23 2.29-5.33 2.26-1.93-0.05-3.27-1-4.11-2.68-1.07-2.15-0.32-4.84 1.69-5.99 0.77-0.45 1.62-0.6 2.43-0.5z" fill="#fff"/>
                    </g>
                    <g transform="translate(33.269)">
                        <path d="m1584.5 1070.7c0.96-1.84 2.83-4.62 6.21-7.33 5.52-4.42 12.75-6.7 17.95-11.42 1.16-1.06 1.53-2.53 2.16-3.87 1.26-2.64 2.87-5.13 6.33-6.85 2.06-1.03 4.51-0.07 5.47 2.15 0.96 2.21 0.07 4.85-1.99 5.88-1.84 0.91-2.31 2.49-2.95 3.9-0.92 2.02-1.94 3.96-3.69 5.55-5.33 4.84-12.7 7.24-18.35 11.76-3.68 2.95-4.27 5.34-4.49 5.89-0.53 1.28-1.27 1.84-1.7 2.12-1.35 0.89-2.68 0.93-4.07 0.18-0.36-0.2-1.49-0.8-2.22-2.9-0.64-1.86-0.05-3.9 1.34-5.06z" fill="#fff"/>
                    </g>
                    <g transform="translate(33.269)">
                        <path d="m1659.3 1055c-7.49 6.92-15.61 13.36-22.33 20.97-0.13 0.15-0.3 0.34-0.48 0.54 0.19 0.92 0.11 1.9-0.28 2.82-0.96 2.22-3.42 3.18-5.48 2.15-1.57-0.79-2.35-1.87-2.78-2.88-0.56-1.31-0.64-2.74-0.12-4.25 0.46-1.35 1.92-3.07 3.16-4.47 8.12-9.2 18.24-16.74 26.9-25.41 1.86-1.85 3.13-2.31 3.6-2.41 2.01-0.44 3.24 0.47 4.04 1.45 0.64 0.79 1.32 2.09 0.94 4.01-0.11 0.53-0.44 1.5-1.13 2.57-0.91 1.41-2.56 3.3-3.97 4.24-0.65 0.43-1.36 0.65-2.07 0.67z" fill="#fff"/>
                    </g>
                    <g transform="translate(33.269)">
                        <path d="m1699.8 1049.3c2.26-0.2 4.26 1.62 4.44 4.05 0.19 2.44-1.5 4.58-3.77 4.78-4.76 0.42-9.19 4.24-13.53 8.92-7.71 8.32-14.78 19.59-20.95 25.76-1.66 1.67-4.27 1.57-5.83-0.22-1.55-1.79-1.45-4.59 0.21-6.26 6.11-6.11 13.1-17.3 20.73-25.53 5.88-6.35 12.24-10.93 18.7-11.5z" fill="#fff"/>
                    </g>
                    <g transform="translate(33.269)">
                        <path d="m1705.6 1088.3c-0.36 0.39-0.72 0.8-1.04 1.19-4.33 5.32-10 13.63-12.34 15.97-1.67 1.66-4.28 1.56-5.83-0.23s-1.46-4.59 0.21-6.26c2.24-2.23 7.62-10.23 11.76-15.31 2.38-2.92 4.6-4.94 5.89-5.52 2.08-0.94 3.72-0.4 4.89 0.56 0.91 0.76 2.23 2.48 1.83 5.94-0.29 2.43-2.35 4.15-4.61 3.84-0.26-0.03-0.52-0.09-0.76-0.18z" fill="#fff"/>
                    </g>
                    <g transform="translate(33.269)">
                        <path d="m1712.3 1102.1c0.06-0.08 0.13-0.16 0.2-0.23s0.13-0.14 0.2-0.2c6.85-6.99 8.33 3.54 5.87 6.22-0.4 0.43-3.3 3.53-4.32 4.79-4.48 5.51-8.2 11.47-12.55 17.07-1.46 1.88-4.06 2.13-5.81 0.56-1.74-1.57-1.98-4.36-0.52-6.24 4.39-5.65 8.15-11.66 12.66-17.21 0.89-1.09 3.31-3.73 4.27-4.76z" fill="#fff"/>
                    </g>
                    <g transform="translate(-739.81 455.98)">
                        <path d="m1755.3 1054.2c0.44-1.41 1.39-2.35 2.03-2.78 1.11-0.74 2.17-0.77 2.87-0.66 1.64 0.26 2.76 1.27 3.32 2.89 0.21 0.62 0.7 2.07-0.37 3.95-0.25 0.78-0.7 1.47-1.3 1.99-2.69 4.12-5.34 8.47-8.25 12.35-1.43 1.9-4.03 2.2-5.8 0.67s-2.05-4.32-0.62-6.23c2.86-3.82 5.47-8.12 8.12-12.18z" fill="#fff"/>
                    </g>
                    <g transform="translate(-739.81 455.98)">
                        <path d="m1797 1057.9c-0.57 0.47-2.05 1.73-3.03 2.9-3.42 4.08-7.13 10.24-9.12 14.38-0.3 0.61-0.6 1.33-0.81 1.88 0.35 2.29-1 4.51-3.14 5.04-1.73 0.44-2.96-0.16-3.87-0.99-0.79-0.74-1.71-2.06-1.5-4.28 0.1-1.03 0.75-3.14 2-5.73 2.25-4.67 6.45-11.62 10.32-16.23 1.97-2.35 3.92-4.11 5.54-5 1.22-0.68 2.38-0.96 3.39-0.96 0.92 0 2.47 0.26 3.61 0.71 0.92 0.38 1.65 0.9 2.13 1.41 1.28 1.35 1.62 2.94 1.28 4.56-0.49 2.39-2.7 3.89-4.92 3.36-0.73-0.17-1.37-0.55-1.88-1.05zm-16.49 15.5c-0.44-0.07-0.93-0.06-1.48 0.08 0.5-0.13 1-0.15 1.48-0.08z" fill="#fff"/>
                    </g>
                    <g transform="translate(-739.81 455.98)">
                        <path d="m1833.1 1061.1c-0.53 1.04-1.41 2.71-1.95 3.5-6.12 8.97-5.67 8.78-12.53 16.7-1.7 1.96-14.12 16.34-21.43 26.12-2.06 2.76-4.21 6.27-4.52 6.79-0.35 2.07-2.04 3.64-4.06 3.64-2.28 0-4.12-1.98-4.12-4.43 0-0.66 0.13-1.62 0.61-2.76 0.47-1.12 1.42-2.76 2.75-4.73 6.45-9.48 22.75-28.38 24.74-30.67 6.53-7.53 6.09-7.36 11.91-15.9 0.75-1.1 1.61-3.16 2.27-4.19 0.54-0.83 1.1-1.39 1.53-1.7 1.33-0.98 2.63-1 3.71-0.67 0.97 0.3 2.09 0.96 2.8 2.66 0.86 2.09 0.1 4.52-1.71 5.64zm-4.45-0.23c-0.58-0.44-1.06-1.05-1.37-1.8 0.36 0.88 0.84 1.44 1.37 1.8z" fill="#fff"/>
                    </g>
                    <g transform="translate(-739.81 455.98)">
                        <path d="m1868.6 1062.3c-0.46 0.49-1.25 1.35-1.75 2.03-1.29 1.76-2.47 3.64-3.26 4.62-1.48 1.86-4.09 2.07-5.81 0.47-1.73-1.59-1.92-4.39-0.44-6.24 1.48-1.86 4.31-6.55 6.86-8.47 2.64-1.99 5.26-2.06 7.49-0.4 1.87 1.39 2.33 4.15 1.03 6.16-0.94 1.47-2.58 2.13-4.12 1.83z" fill="#fff"/>
                    </g>
                    <g transform="translate(-739.81 455.98)">
                        <path d="m1886.5 1055c1.9-1.34 4.46-0.76 5.71 1.28 1.24 2.05 0.71 4.79-1.2 6.13-1.99 1.41-3.22 2.28-5.14 4.59-1.52 1.82-4.13 1.98-5.82 0.35-1.7-1.63-1.84-4.43-0.32-6.25 2.54-3.05 4.13-4.25 6.77-6.1z" fill="#fff"/>
                    </g>
                    <g transform="translate(-739.81 455.98)">
                        <path d="m1824.5 1107.4c-0.45-1.39-0.25-2.98 0.65-4.21 0.68-0.93 2.15-2.68 3.26-3.79 0.86-0.86 1.66-1.41 2.12-1.63 1.57-0.75 2.83-0.4 3.62 0.01 1.22 0.61 2.4 1.73 2.43 4.07 0.01 0.53-0.18 2.08-1.64 4.7-7.38 13.29-20.77 25.44-30.49 37.32-1.31 1.61-4.32 3.81-7.03 6.15-0.84 0.72-1.65 1.47-2.31 2.22-0.32 0.37-0.73 1.02-0.85 1.2-0.13 2.32-1.92 4.16-4.11 4.16-2.28 0-4.13-1.98-4.13-4.43 0-2.21 1.07-4.7 3.09-7.01 2.7-3.08 7.47-6.09 9.15-8.13 8.07-9.87 18.84-19.87 26.24-30.63z" fill="#fff"/>
                    </g>
                    <g transform="translate(-739.81 455.98)">
                        <path d="m1798.6 1188.1c-0.47 0.77-1.17 1.39-2.04 1.73-1.66 0.65-2.73 0.17-3.16-0.01-1.22-0.53-1.93-1.44-2.32-2.53-0.26-0.76-0.79-2.58 0.75-4.55 1-1.28 14.58-11.2 15.67-12.12 4.9-4.11 9.71-11.92 14.79-17.48 4.35-4.76 9.02-7.91 13.73-7.91 2.27 0 4.12 1.98 4.12 4.43 0 2.44-1.85 4.43-4.12 4.43-2.8 0-5.26 2.43-7.85 5.26-5.32 5.82-10.45 13.93-15.59 18.25-0.89 0.74-11.63 8.75-13.98 10.5zm-3.81-6.84c-0.31 0.02-0.66 0.1-1.05 0.25 0.35-0.14 0.7-0.22 1.05-0.25z" fill="#fff"/>
                    </g>
                    <g transform="translate(-739.81 455.98)">
                        <path d="m1800 1228.8c-0.62 1.85-2.34 3.09-4.25 2.9-2.26-0.22-3.94-2.37-3.73-4.81 0.08-1.02 0.61-2.55 1.89-4.08 2.1-2.51 7.18-6.25 8.19-7.22 4.75-4.53 9.14-10.43 13.84-15.92 5.17-6.04 10.71-11.58 17.22-14.84 2.06-1.03 4.52-0.07 5.48 2.15s0.06 4.85-2 5.88c-5.56 2.78-10.21 7.64-14.63 12.8-4.89 5.72-9.48 11.83-14.42 16.55-0.67 0.64-3.19 2.52-5.38 4.43-0.82 0.71-1.87 1.8-2.21 2.16z" fill="#fff"/>
                    </g>
                    <g transform="translate(-739.81 455.98)">
                        <path d="m1799.7 1267.2c0.07 0.3 0.1 0.6 0.11 0.92 0.05 2.44-1.76 4.47-4.03 4.52-2.49 0.06-3.82-1.02-4.51-1.9-1.1-1.37-1.7-3.39-0.48-5.94 0.66-1.37 2.54-3.53 5.08-5.78 4.56-4.03 11.42-8.95 12.92-10.38 3.94-3.77 9.76-10.86 15.66-16.4 4.51-4.25 9.15-7.55 13.14-8.54 2.22-0.56 4.43 0.92 4.95 3.31 0.52 2.38-0.87 4.76-3.08 5.31-2.95 0.74-6.24 3.44-9.58 6.58-5.88 5.53-11.68 12.61-15.61 16.36-1.53 1.46-8.51 6.49-13.16 10.6-0.47 0.42-0.96 0.89-1.41 1.34z" fill="#fff"/>
                    </g>
                    <g transform="translate(-739.81 455.98)">
                        <path d="m1838.2 1266.6c-0.29 0.26-1.09 0.98-1.57 1.54-2.18 2.55-4.38 5.93-5.47 7.01-7.47 7.47-15.9 13.96-22.65 22.12-1.86 2.24-3.86 6.92-6.23 10.76-2.15 3.49-4.65 6.33-7.25 7.56-2.08 0.98-4.52-0.04-5.43-2.28-0.92-2.24 0.03-4.85 2.12-5.83 1.89-0.89 3.32-3.61 4.81-6.26 2.13-3.77 4.07-7.73 5.82-9.84 6.92-8.36 15.54-15.06 23.19-22.71 1.22-1.22 3.87-5.47 6.29-7.91 1.99-2 4.1-2.95 5.69-2.95 2.27 0 4.12 1.98 4.12 4.42 0 2.2-1.49 4.02-3.44 4.37z" fill="#fff"/>
                    </g>
                    <g transform="translate(-739.81 455.98)">
                        <path d="m1793.3 1341.3c3.86-2.61 7.58-6.19 11.18-9.96 5.68-5.95 11.04-12.41 16.04-17.02 1.73-1.6 13.39-13.08 15.7-14.83 3.23-2.46 5.78 0.3 6.14 0.84 0.42 0.65 0.76 1.48 0.76 2.57 0 1.75-0.94 3.26-2.31 3.98-1.58 1.5-13.37 12.72-14.92 14.15-5.9 5.45-12.31 13.54-19.17 20.21-5.01 4.86-10.27 8.98-15.69 11.14-2.2 0.88-3.53-0.05-4.15-0.54-1.18-0.93-2.11-2.43-1.58-4.74 0.13-0.58 0.76-2.01 2.01-3.26 1.34-1.35 3.34-2.49 4.54-2.64 0.5-0.06 0.99-0.02 1.45 0.1zm41.97-36.49c-0.25-0.58-0.4-1.22-0.4-1.91 0 0.76 0.16 1.38 0.4 1.91z" fill="#fff"/>
                    </g>
                    <g transform="translate(-739.81 455.98)">
                        <path d="m1784.6 1382.6c1.87-1.2 4.17-3.1 6.71-5.39 11.42-10.3 27.29-28.03 33.21-32.18 4.98-3.48 8.98-6.49 13.83-9.73 0.81-0.54 2.53-1.75 3.82-2.67l1.49-1.19c0.15-0.11 0.3-0.22 0.45-0.31 3.62-2.17 5.77 1.04 5.89 1.23 0.27 0.46 1.83 3.42-0.85 5.86-0.23 0.21-1.15 0.89-2.26 1.68l-3.4 2.72c-0.51 0.41-1.08 0.67-1.66 0.79-4.41 2.98-8.19 5.81-12.81 9.05-5.79 4.05-21.24 21.47-32.41 31.53-1.57 1.41-3.06 2.69-4.45 3.79-0.49 1.49-1.71 2.66-3.27 2.92-0.32 0.05-0.83 0.16-1.4 0.31-0.11 0.06-0.22 0.11-0.33 0.17-1.65 0.86-3.09 1.21-4.19 1.21-3.77 0-4.36-3.11-4.46-3.78-0.16-1.08-0.18-2.97 1.77-4.43 0.27-0.19 0.86-0.55 1.73-0.85 0.64-0.22 1.6-0.48 2.59-0.73z" fill="#fff"/>
                    </g>
                    <g transform="translate(-739.81 455.98)">
                        <path d="m1830.8 1372.4c0.06-0.93 0.43-2.29 1.74-3.46 1.03-0.91 3.72-2.22 4.96-2.49 2.67-0.59 4.17 1.12 4.67 1.94 0.45 0.75 1.55 2.86-0.18 5.24-0.17 0.82-0.66 2.04-2.02 3.08-2.17 1.65-13.21 8.33-16.36 11.84-13.12 14.57-29.76 27.11-45.44 38.76-3.35 2.49-7.62 5.62-11.05 8.36-0.06 0.25-0.14 0.5-0.24 0.75-0.14 0.32-1.07 1.81-2.34 3.21-1.25 1.38-2.81 2.65-3.83 3.07-1.3 0.55-2.44 0.45-3.31 0.13-1.04-0.37-1.92-1.09-2.53-2.29-0.56-1.14-1.02-3.95 1.49-6.77 2.78-3.12 11.26-9.39 17.12-13.74 15.24-11.33 31.45-23.47 44.2-37.64 2.16-2.4 8.67-6.98 13.12-9.99zm4.4-3.88c0.14-0.2 0.29-0.38 0.46-0.56-0.18 0.19-0.33 0.37-0.46 0.56z" fill="#fff"/>
                    </g>
                    <g transform="translate(-739.81 455.98)">
                        <path d="m1839 1414.2-17.04 15.68c0.05 0.26 0.08 0.53 0.08 0.81 0.04 2.45-1.78 4.46-4.05 4.5-1.07 0.02-3.16 0.47-3.16 0.47-1.8 0.37-3.61-0.59-4.44-2.34s-0.49-3.88 0.85-5.23c0 0 20.61-20.74 26.17-23.75 3.49-1.9 5.78 0.01 6.57 1.3 0.5 0.82 1.37 3.03-0.31 6.37-0.91 1.84-2.87 2.7-4.67 2.19z" fill="#fff"/>
                    </g>
                    <g transform="translate(-739.81 455.98)">
                        <path d="m1852.4 1427.7c0.02-0.01 0.03-0.02 0.05-0.03 0.55-1.95 2.31-3.27 4.24-3.11 3.09-2.34 6.07-4.65 8.48-5.93 0.02-0.01 10.2-4.81 13.09-6.17 0.15-0.74 0.49-1.45 1-2.05 1.55-1.79 4.16-1.88 5.83-0.22 1.33 1.34 1.73 2.87 1.56 4.47-0.13 1.18-0.72 2.7-2.19 4.09-3.18 3.01-13.69 7.14-15.79 7.92-0.03 0-0.05 0.01-0.07 0.02-2.74 1.51-6.2 4.43-9.69 6.99-0.87 1.1-2.04 1.83-3.41 2.33-2.51 1.57-4.95 2.74-7.1 3.17-1.91 0.38-3.2-0.41-4.11-1.71-0.46-0.64-0.88-1.61-0.87-2.83 0.01-0.98 0.44-2.26 0.87-2.9 1.19-1.78 2.98-2.82 5.09-3.36 0.85-0.22 2.29-0.52 3.02-0.68z" fill="#fff"/>
                    </g>
                    <g transform="translate(-739.81 455.98)">
                        <path d="m1885.6 1423.4c-0.64 1.57-2.09 2.66-3.78 2.66-2.28 0-4.12-1.98-4.12-4.43 0-1.41 0.28-2.09 0.5-2.57 0.26-0.55 0.55-0.96 1.57-1.87 1.76-1.55 4.36-1.29 5.81 0.59 1.27 1.66 1.24 4.02 0.02 5.62z" fill="#fff"/>
                    </g>
                    <g transform="translate(-739.81 455.98)">
                        <path d="m1924.6 1412.2c-1.28 1.04-2.91 2.4-4.35 3.7-5.32 4.79-11.54 10.63-13.95 12.14-0.64 0.4-5.27 3.61-7.24 4.98-0.35 0.43-0.78 0.8-1.29 1.07-2.34 1.25-3.8 0.38-4.02 0.28-1.57-0.77-2.32-2.07-2.41-3.78-0.03-0.37-0.16-2.33 1.75-3.94 1.24-1.03 8.15-5.69 9.07-6.27 2.61-1.63 9.98-8.86 15.3-13.51 2.81-2.44 5.2-4.22 6.4-4.74 2.73-1.17 4.49 0.13 5.34 1.2 0.6 0.75 1.87 3.04 0.06 6.67-0.92 1.83-2.86 2.69-4.66 2.2z" fill="#fff"/>
                    </g>
                    <g transform="translate(-739.81 455.98)">
                        <path d="m1933 1427.2c2.78-1.97 5.71-3.63 8.39-5.95 9.93-8.64 14.43-15.58 26.02-20.54 2.11-0.91 4.51 0.2 5.36 2.47 0.84 2.27-0.19 4.85-2.31 5.76-10.7 4.58-14.71 11.21-23.89 19.19-3.6 3.13-7.66 5.05-11.19 8.14-2.28 1.99-3.57 2.23-3.77 2.26-1.3 0.15-2.19-0.31-2.82-0.77-0.83-0.62-1.4-1.48-1.66-2.62-0.14-0.63-0.3-1.77 0.39-3.16 0.11-0.21 0.33-0.6 0.71-1.05 0.75-0.91 3.18-3.07 3.93-3.43 0.29-0.13 0.57-0.23 0.84-0.3z" fill="#fff"/>
                    </g>
                    <g transform="translate(-739.81 455.98)">
                        <path d="m2019.4 1388.2c0.59-0.36 1.28-0.57 2.01-0.57 2.28 0 4.12 1.98 4.12 4.43 0 2.17-0.93 3.44-2.19 4.27-0.55 0.36-1.21 0.64-2 0.74-0.36 0.05-1.03 0.01-1.59-0.04-1.93 2-8.29 8.62-9.12 9.28-4.42 3.54-28.01 23.8-32.88 29.01-0.08 0.09-0.19 0.21-0.27 0.29-0.85 1.53-2.52 2.41-4.25 2.08-2.24-0.43-3.73-2.74-3.33-5.14 0.07-0.46 0.27-1.29 0.96-2.25 0.47-0.65 1.72-1.98 3.54-3.71 7.78-7.43 27.28-24.17 31.3-27.39 0.85-0.67 5.93-6.39 8.53-8.83 1.31-1.24 2.44-1.88 2.9-2.03 0.47-0.16 1.46-0.17 2.27-0.14z" fill="#fff"/>
                    </g>
                    <g transform="translate(-739.81 455.98)">
                        <path d="m2037.1 1408.3c-0.32 1.49-1.34 2.7-2.67 3.2-2.15 3.44-4.36 7.88-6.79 11.55-3.22 4.87-6.94 8.41-10.71 9.1-2.25 0.41-4.38-1.21-4.76-3.62-0.39-2.41 1.12-4.7 3.37-5.11 0.76-0.14 1.43-0.7 2.12-1.37 1.14-1.1 2.21-2.54 3.26-4.13 3.9-5.9 7.48-13.52 10.87-16.91 3.59-3.58 6.6 0.95 6.76 1.31 0.17 0.43 0.91 2.08-0.29 4.16-0.1 0.17-0.91 1.42-1.16 1.82z" fill="#fff"/>
                    </g>
                    <g transform="translate(-739.81 455.98)">
                        <path d="m2167.9 1096.1c-0.09-0.34-0.14-0.72-0.15-1.11-0.03-0.71 0.1-1.69 0.62-2.77 0.63-1.3 2.31-3.33 3.44-4.31 2.04-1.77 4.13-1.33 4.75-1.07 0.72 0.3 1.32 0.78 1.78 1.42 0.42 0.58 1.71 2.42 0.23 5.39-7.3 14.59-17.53 32.9-28.38 45.11-5.02 5.65-10.43 9.56-14.38 16.25-1.74 2.95-16.27 22.96-19.57 27.6-0.11 1.23-0.06 2.41-0.12 3.55-0.11 2.36-0.54 4.61-1.89 6.86-0.17 0.28-0.63 1.02-0.96 1.53-0.36 2.04-2.04 3.58-4.05 3.58-2.1 0-3.22-1.15-3.85-2.63-0.3-0.7-0.53-1.66-0.31-2.88 0.08-0.43 0.26-1.02 0.58-1.68 0.42-0.83 1.31-2.12 1.66-2.71 0.65-1.1 0.59-2.23 0.62-3.39 0.03-1.52 0.05-3.1 0.33-4.75 0.01-0.06 0.23-1.16 1.29-2.65 2.93-4.14 17.58-24.25 19.3-27.17 4.26-7.21 9.97-11.54 15.39-17.63 8.78-9.88 17.09-23.98 23.67-36.54zm-57.74 93.29c-0.29-0.07-0.59-0.11-0.94-0.11 0.33 0 0.64 0.04 0.94 0.11z" fill="#fff"/>
                    </g>
                    <g transform="translate(-739.81 455.98)">
                        <path d="m2154.9 1164.6c0.17-0.33 0.37-0.65 0.62-0.94 1.06-1.24 2.08-1.34 2.35-1.39 1.09-0.2 1.96 0.06 2.65 0.46 0.89 0.51 1.63 1.31 2 2.59 0.03 0.1 0.63 1.98-0.82 4.3-2.27 3.62-16.5 25.21-19.67 30.61-10.87 18.54-26.85 38.35-41.74 53.24-1.67 1.67-4.28 1.57-5.83-0.22s-1.46-4.59 0.21-6.26c14.4-14.4 29.87-33.55 40.39-51.48 3.18-5.43 17.51-27.18 19.79-30.83 0.02-0.02 0.04-0.05 0.05-0.08zm2.54 6.32c0.97 0.34 2.62 0.53 4.15-1.27-1.08 1.27-2.7 1.7-4.15 1.27z" fill="#fff"/>
                    </g>
                    <g transform="translate(-739.81 455.98)">
                        <path d="m2152.9 1233.6s2.03-0.28 2.49-1.08c-0.07 0.11-0.13 0.22-0.2 0.34 0.26-0.19 0.49-0.4 0.71-0.64l-1.5 2.11c-0.29 1.12-0.97 2.02-1.83 2.58-2.3 3.26-4.9 6.39-7.28 9.47-8.58 11.11-15.86 23.64-24.78 34.05-1.52 1.77-5.76 6.25-8.91 10.35-1.23 1.61-2.66 4.13-2.85 4.46-0.17 2.28-1.94 4.07-4.11 4.07-2.27 0-4.12-1.98-4.12-4.43 0-1.71 1.05-4.52 3.09-7.5 3.27-4.76 8.98-10.79 10.84-12.95 8.82-10.3 16-22.72 24.5-33.71 3.18-4.12 6.81-8.29 9.41-12.83 0.46-0.82 2.08-2.27 2.08-2.27l2.46 7.98z" fill="#fff"/>
                    </g>
                    <g transform="translate(-739.81 455.98)">
                        <path d="m2122.4 1311.6c7.9-8.41 14.58-18.74 21.66-27.77 2.46-3.14 7.15-8.2 10.38-12.72-0.45-1.11-0.47-2.23-0.43-2.53 0.07-0.63 0.44-2.59 2.58-3.63 0.61-0.29 1.9-0.7 2.95-0.78 0.93-0.08 1.75 0.08 2.33 0.31 1.5 0.61 2.35 1.75 2.73 3.13 0.24 0.91 0.36 2.17-0.41 3.71-2.8 5.6-10.32 13.75-13.82 18.21-7.29 9.3-14.19 19.91-22.34 28.54-0.1 0.1-2.44 2.01-4.58 3.98-0.65 0.59-1.44 1.41-1.91 1.91-0.18 6.19-1.71 8.48-5.26 14.4-1.23 2.05-3.78 2.65-5.7 1.32-1.91-1.32-2.46-4.06-1.23-6.12 2.67-4.44 3.97-5.87 3.97-10.95 0-0.89 0.4-2.6 1.83-4.31 1.8-2.16 6.79-6.32 7.25-6.7z" fill="#fff"/>
                    </g>
                    <g transform="translate(-739.81 455.98)">
                        <path d="m2170.8 1312.9c-0.56 1.11-2.18 4.31-3.27 7.01-2.5 6.18-4.97 13.24-5.42 14.1-1.91 3.61-9.4 11.61-14.38 18.14-1.33 1.74-2.68 4.08-3.23 5.06 0.42 1.47 0.12 3.13-0.92 4.32-1.55 1.79-4.17 1.89-5.83 0.23-1.68-1.68-2.48-4.79-0.58-8.77 1.63-3.44 5.67-8.46 9.68-13.2 3.48-4.12 6.94-7.98 8.09-10.16 0.66-1.24 5.58-15.77 8.62-21.08 1.33-2.34 2.87-3.47 3.77-3.78 1.1-0.39 2.12-0.31 3.04 0.07 2.12 0.88 3.19 3.44 2.37 5.73-0.37 1.04-1.08 1.84-1.94 2.33z" fill="#fff"/>
                    </g>
                    <g transform="translate(-739.81 455.98)">
                        <path d="m2181.6 1349.1c-1.69-0.9-2.64-2.96-2.18-5.02 1.42-6.28 8.21-6.65 11.28-4.31 2.38 1.81 3.19 4.54 1.73 7.46-4.58 9.14-12.93 18.32-18.82 26.74-0.71 1.02-3.68 4.25-6.17 7.32-0.62 0.76-1.3 1.72-1.82 2.47 0.06 0.29 0.09 0.59 0.09 0.9 0 2.44-1.85 4.43-4.12 4.43-2.47 0-3.69-1.33-4.35-2.71-0.5-1.03-0.8-2.53-0.19-4.39 0.39-1.19 1.46-3.01 2.93-4.95 2.5-3.28 6.25-7.26 7.04-8.39 4.35-6.22 10.14-12.83 14.58-19.55zm-19.63 31.15c-0.12-0.01-0.25-0.02-0.38-0.02 0.13 0 0.26 0.01 0.38 0.02z" fill="#fff"/>
                    </g>
                    <g transform="translate(-739.81 455.98)">
                        <path d="m2207.1 1380c-0.94 1.78-9.95 19-12.67 23.91-1.35 2.42-3.73 5.75-4.69 7.07-0.35 1.43-1.36 2.63-2.77 3.1-1.84 0.61-3.04-0.07-3.73-0.59-0.81-0.61-1.39-1.44-1.66-2.58-0.15-0.64-0.32-1.82 0.35-3.3 0.51-1.11 3.56-4.91 5.42-8.24 2.64-4.77 9-18.09 12.21-23.31 1.04-1.68 1.98-2.74 2.52-3.16 0.85-0.65 1.64-0.86 2.25-0.92 2.27-0.22 4.28 1.57 4.48 4.01 0.14 1.62-0.56 3.12-1.71 4.01zm-19.61 25.83c-0.71-0.42-1.67-0.64-2.96-0.21 1.02-0.34 2.06-0.23 2.96 0.21z" fill="#fff"/>
                    </g>
                    <g transform="translate(-739.81 455.98)">
                        <path d="m2230.7 1410.2c-4.31 7.63-11.67 17.03-16.98 22.34-1.67 1.66-4.28 1.56-5.83-0.22-1.55-1.79-1.46-4.6 0.21-6.26 5.34-5.35 13.01-15.24 16.63-22.47 1.02-2.05 2.42-2.46 3.21-2.62 1.72-0.33 3.22 0.31 4.25 1.88 0.81 1.25 1.54 5.17-1.49 7.35z" fill="#fff"/>
                    </g>
                    <g transform="translate(-739.81 455.98)">
                        <path d="m2251.4 1413.2c0.03-0.18 0.06-0.37 0.11-0.55 0.65-2.54 2.69-4.63 5.57-4.63 1.66 0 2.57 0.79 3.12 1.41 0.82 0.92 1.26 2.07 1.15 3.5-0.03 0.42-0.12 0.91-0.33 1.44 0.19 0.5 0.29 1.05 0.3 1.62 0.02 2.45-1.81 4.45-4.09 4.47-0.2 0-0.4 0-0.6-0.02-0.82 1.18-1.64 2.36-2.5 3.51-1.22 1.62-6.97 8.95-10.38 13.65 0 1.18-0.44 2.37-1.32 3.24-2.24 2.24-3.8 2.65-4.18 2.69-1.31 0.14-2.26-0.32-2.96-0.9-0.87-0.72-2.29-2.32-1.38-5.13 0.16-0.5 0.84-1.81 2-3.48 3.13-4.5 10.4-13.76 11.8-15.62 1.27-1.7 2.46-3.47 3.69-5.2z" fill="#fff"/>
                    </g>
                    <g transform="translate(-739.81 455.98)">
                        <path d="m2280.6 1422.3c0.04-0.55 0.2-1.18 0.55-1.85 0.36-0.68 1.79-2.73 4.67-2.73 2.04 0 3.07 0.96 3.63 1.63 0.95 1.15 1.39 2.59 0.93 4.39-0.17 0.66-0.64 1.68-1.6 2.71-1.03 1.11-3.45 2.77-4.22 3.93-1.69 2.52-6.19 7.4-9.52 12.14-0.95 1.35-1.8 2.69-2.4 3.93-0.35 0.71-0.66 1.32-0.66 1.88 0 2.45-1.85 4.43-4.12 4.43-2.28 0-4.13-1.98-4.13-4.43 0-2.36 1.1-5.42 3.04-8.59 3.31-5.4 9.11-11.57 11.08-14.52 0.53-0.79 1.5-1.81 2.6-2.79 0.05-0.04 0.1-0.08 0.15-0.13zm2.38-3.61c-0.25 0.14-0.53 0.33-0.82 0.6 0.26-0.24 0.53-0.44 0.82-0.6z" fill="#fff"/>
                    </g>
                    <g transform="translate(-739.81 455.98)">
                        <path d="m2298.5 1445c0.45-0.5 2.48-2.8 3.82-4.86 3.86-5.94 8.28-14.23 12.04-18.66 2.6-3.07 5.31-4.47 7.38-4.44 2.09 0.04 4.18 1.01 5.74 4.01 1.12 2.13 0.42 4.83-1.57 6.03-1.54 0.93-3.4 0.68-4.68-0.48-0.13 0.13-0.25 0.25-0.36 0.37-0.91 0.99-1.85 2.28-2.83 3.73-3.95 5.87-8.28 14.09-11.78 18.51-2.53 3.18-5.17 4.59-7.05 4.59-2.27 0-4.12-1.99-4.12-4.43 0-2.19 1.47-4.01 3.41-4.37z" fill="#fff"/>
                    </g>
                    <g transform="translate(-739.81 455.98)">
                        <path d="m2358.6 1422.1c-0.42 0.28-1.01 0.72-1.44 1.12-1.15 1.06-2.35 2.41-3.53 3.85-3.86 4.69-7.51 10.17-8.5 11.17-1.38 1.38-2.32 3.12-3.33 4.78-0.33 0.53-0.66 1.06-1.01 1.57 0.05 1.53-0.64 3.05-1.94 3.92-1.3 0.86-3.49 2.21-5.26 2.21s-2.65-0.92-3.13-1.51c-0.91-1.1-1.34-2.47-0.89-4.17 0.11-0.44 0.32-0.99 0.73-1.55 0.24-0.32 1.06-1.06 1.45-1.35 1.37-1.03 2.25-2.51 3.16-3.99 1.37-2.24 2.73-4.53 4.6-6.4 0.89-0.89 4.02-5.7 7.47-9.97 2.78-3.44 5.8-6.51 8.19-7.82 3.28-1.8 6.05-1.24 8.01 1.01 1.56 1.78 1.48 4.59-0.18 6.26-1.22 1.23-2.95 1.51-4.4 0.87z" fill="#fff"/>
                    </g>
                    <g transform="translate(-739.81 455.98)">
                        <path d="m2378 1422c0.58-1.73 1.24-3.38 2.13-4.62 2.04-2.85 4.78-5.05 7.64-7.17 2.25-1.67 4.59-3.28 6.46-5.45 11.01-12.85 21-26.51 32.53-38.63 1.03-1.36 2.14-2.46 2.85-3.08 1.3-1.14 2.41-1.36 2.58-1.39 1.39-0.21 2.34 0.29 2.95 0.75 0.97 0.72 1.61 1.75 1.75 3.18 0.03 0.29 0.37 2.05-1.4 3.83-0.87 0.87-1.74 1.75-2.59 2.64-0.04 0.07-0.09 0.14-0.13 0.2-0.29 0.44-0.63 0.88-0.64 1.37-0.07 2.45-1.98 4.37-4.25 4.29-0.12-0.01-0.23-0.02-0.35-0.03-9.4 10.57-17.94 22.02-27.24 32.87-2.27 2.65-5.08 4.7-7.84 6.74-2.14 1.59-4.26 3.14-5.78 5.27-0.45 0.63-0.69 1.5-0.97 2.38-0.48 1.53-0.93 3.12-1.52 4.43-1.44 3.23-3.63 5.19-6.94 5.19-1.17 0-2.21-0.44-3.07-1.45-0.41-0.48-1.02-1.37-1.1-2.85-0.04-0.86 0.6-4.2 1.87-6.09 0.87-1.28 1.96-2.05 3.06-2.38z" fill="#fff"/>
                    </g>
                    <g transform="translate(-739.81 455.98)">
                        <path d="m2436.8 1394.6c2.19-0.66 4.47 0.73 5.07 3.08 0.61 2.36-0.68 4.8-2.87 5.45-1.31 0.39-2.2 1.22-3.3 2.28-1.69 1.63-3.63 3.76-6.66 6.35-1.78 1.53-4.38 1.21-5.8-0.7-1.41-1.91-1.12-4.7 0.66-6.22 3.51-3.01 5.51-5.37 7.38-7.03 1.72-1.52 3.39-2.58 5.52-3.21z" fill="#fff"/>
                    </g>
                    <g transform="translate(-739.81 455.98)">
                        <path d="m2427.8 1318.1c-0.47-1.08-0.46-2.17-0.28-3.12 0.3-1.66 1.71-3.5 3.62-4.25 2.32-0.91 4.69 0.04 5.74 1.36 0.87 1.1 1.81 2.96 0.48 5.8-1 2.14-2.1 4.25-3.4 6.22-2.82 4.3-5.77 8.53-8.92 12.6-14.68 18.93-29.39 39.7-45.54 55.85-1.66 1.66-4.27 1.56-5.82-0.22-1.55-1.79-1.46-4.6 0.21-6.26 15.9-15.91 30.35-36.4 44.81-55.04 3.01-3.88 5.83-7.93 8.53-12.04 0.19-0.3 0.38-0.6 0.57-0.9zm6.85-4.77-0.21-0.18 0.21 0.18z" fill="#fff"/>
                    </g>
                    <g transform="translate(-739.81 455.98)">
                        <path d="m2424 1280.3c0.24-0.73 0.71-1.63 1.76-2.34 0.24-0.16 0.63-0.38 1.15-0.58 0.14-0.06 0.35-0.11 0.58-0.18 0.34-0.23 0.68-0.45 1.02-0.64 0.56-0.48 1.41-0.96 2.44-1.21 1.12-0.27 2.62-0.3 2.93-0.29 4.78 0.11 11.08 8.86-0.21 8.86-0.11 0-0.22 0.01-0.32 0.03-0.17 0.02-0.33 0.07-0.49 0.13-0.05 0.03-0.09 0.06-0.14 0.09-0.57 1.2-1.62 2.05-2.84 2.32-0.41 0.46-0.8 0.95-1.19 1.47-3.6 4.81-6.5 11.43-8.5 14.43-9.64 14.46-23.7 27.51-35.56 39.38-1.67 1.66-4.28 1.56-5.83-0.23s-1.46-4.59 0.21-6.25c11.48-11.49 25.15-24.07 34.48-38.06 2.06-3.09 5.07-9.88 8.78-14.83 0.56-0.74 1.14-1.45 1.73-2.1z" fill="#fff"/>
                    </g>
                    <g transform="translate(-739.81 455.98)">
                        <path d="m2478 1224.4c0.02 0.03 0.04 0.05 0.06 0.08 1.5 1.84 1.32 4.64-0.4 6.25-1.82 1.7-3.27 1.25-3.9 1.08-1.16-0.3-2.07-1.03-2.67-2.22-0.27-0.54-0.48-2.84-0.48-2.84s-0.01 0.24-0.01 0.34c0-2.44 1.85-4.43 4.12-4.43 1.34 0 2.52 0.69 3.28 1.74zm-3.69-1.38c-0.59 0.05-1.29 0.31-2.07 1.03 0.61-0.57 1.33-0.91 2.07-1.03z" fill="#fff"/>
                    </g>
                    <g transform="translate(-739.81 455.98)">
                        <path d="m2478 1230.6c-1.04 1.38-10.45 13.88-13.28 16.71-1.67 1.67-4.28 1.57-5.83-0.22s-1.46-4.59 0.21-6.26c2.67-2.67 9.06-12.08 12.35-15.77 1.93-2.17 3.82-2.85 4.59-2.89 2.27-0.11 4.2 1.77 4.31 4.22 0.08 1.83-0.89 3.46-2.35 4.21z" fill="#fff"/>
                    </g>
                    <g transform="translate(-739.81 455.98)">
                        <path d="m2443.8 1230.1c-0.97-2.13-0.21-4.72 1.75-5.85 2.01-1.16 4.51-0.35 5.59 1.8 0.64 1.29 0.8 1.67 0.89 2.31 0.07 0.43 0.12 1.02-0.01 2.18-0.27 2.42-2.32 4.16-4.58 3.87-2.07-0.27-3.6-2.14-3.64-4.31z" fill="#fff"/>
                    </g>
                    <g transform="translate(-739.81 455.98)">
                        <path d="m2443.7 1225.4c1.21-2.07 3.76-2.69 5.68-1.39 1.93 1.3 2.51 4.04 1.3 6.1-5.23 8.94-25.62 30.48-35.83 39.85-5.08 4.65-10.33 7.77-15.06 11.19-4.05 2.93-7.71 6.07-10.24 11.14-1.08 2.15-3.58 2.96-5.59 1.8-2-1.15-2.76-3.84-1.68-5.99 3.23-6.45 7.75-10.58 12.91-14.3 4.49-3.24 9.49-6.17 14.3-10.58 9.72-8.91 29.23-29.32 34.21-37.82z" fill="#fff"/>
                    </g>
                    <g transform="translate(-739.81 455.98)">
                        <path d="m2420.8 1233.2c-0.18 2.38-2.08 4.2-4.31 4.08-0.07 0-0.14-0.01-0.21-0.01-1.16 1.47-2.32 2.84-3.5 3.95-1.11 1.05-13.57 11.06-21.35 17.79-0.12 0.1-0.23 0.2-0.35 0.3 0.05 1.57-0.69 3.12-2.05 3.97-2.68 1.68-4.29 2.44-4.97 2.63-1.44 0.41-2.43 0.06-2.97-0.19-1.37-0.64-2.14-1.73-2.44-3.16-0.15-0.74-0.23-1.85 0.41-3.18 0.32-0.66 1.77-2.42 4.14-4.57 6.92-6.29 22.87-19.05 24.14-20.24 2.5-2.36 4.87-6.07 7.38-9.3 2.08-2.66 4.25-5.03 6.51-6.54 1.52-1.01 2.74-0.79 3.48-0.57 1.29 0.39 2.3 1.26 2.83 2.84 0.19 0.56 0.38 1.52 0.14 2.74-0.15 0.75-0.68 2.15-0.9 2.81-0.79 2.36-2.39 3.96-4.22 5.29-0.46 0.33-0.92 0.65-1.35 0.99-0.13 0.09-0.32 0.28-0.41 0.37z" fill="#fff"/>
                    </g>
                    <g transform="translate(-739.81 455.98)">
                        <path d="m2361.8 1240.2c0.51-0.62 0.97-1.17 1.29-1.49 1.87-1.87 8.1-10.24 13.36-15.1 3.2-2.96 6.35-4.57 8.45-4.57 2.06 0 3.09 1 3.64 1.69 0.9 1.13 1.33 2.56 0.86 4.33-0.19 0.71-0.86 1.99-2.13 3.25-0.73 0.73-2.38 2.4-2.58 2.61-0.92 2.09-3.2 3.09-5.23 2.23-0.11-0.04-0.21-0.09-0.31-0.14-2.99 3.19-5.99 6.91-8.1 9.47 0 1.47-0.69 2.91-1.94 3.75-0.63 0.41-1.37 0.79-2.15 1.14-0.77 1.05-1.57 2.17-2.19 2.83-0.91 0.98-1.81 1.47-2.4 1.67-1.62 0.54-2.93 0.12-3.97-0.74-0.72-0.59-1.75-1.72-1.75-4.05 0-2.15 0.86-3.9 2.44-5.29 0.71-0.62 1.7-1.12 2.71-1.59z" fill="#fff"/>
                    </g>
                    <g transform="translate(-739.81 455.98)">
                        <path d="m2350 1234.6c-0.25 0.3-0.51 0.59-0.74 0.83-1.67 1.66-4.28 1.56-5.83-0.23s-1.46-4.59 0.21-6.26c1.34-1.34 2.37-3.19 2.89-3.65 1.9-1.66 3.65-1.23 4.84-0.52 0.57 0.34 2.52 1.71 2.22 5.79-0.15 2.13-1.69 3.79-3.59 4.04z" fill="#fff"/>
                    </g>
                    <g transform="translate(-739.81 455.98)">
                        <path d="m2230.3 1070.5c-6 5.84-18.3 17.69-25.83 26.64-2.64 3.13-5.09 7.19-5.35 7.61-0.16 2.29-1.94 4.08-4.11 4.08-2.27 0-4.12-1.98-4.12-4.43 0-1.1 0.31-2.57 1.13-4.26 1.12-2.28 3.38-5.43 6.33-8.94 8.94-10.63 24.49-25.29 28.76-29.56 2.51-2.51 4.69-1.04 4.99-0.86 0.96 0.55 3.18 2.34 1.85 5.69-0.12 0.28-0.85 1.43-1.21 2.06-0.57 1.01-1.45 1.68-2.44 1.97z" fill="#fff"/>
                    </g>
                    <g transform="translate(-739.81 455.98)">
                        <path d="m2265.9 1053c-0.02-0.87 0.1-1.8 0.39-2.77 0.82-2.81 3.17-6 5.16-7.32 1.63-1.07 3.23-1.23 4.48-0.89 1.28 0.34 2.45 1.15 3.25 2.76 0.31 0.61 1.05 2.77-0.54 5.42-2.82 4.69-19.4 23.85-24.18 26.72-1.99 1.19-4.5 0.42-5.61-1.71s-0.4-4.83 1.59-6.03c2.8-1.68 10.11-9.72 15.46-16.18z" fill="#fff"/>
                    </g>
                    <g transform="translate(-739.81 455.98)">
                        <path d="m2314.6 1053.1c-2.17 1.56-5.07 4.22-8.04 7.04-6.55 6.22-13.28 13.31-14.19 13.99-1.87 1.4-4.44 0.91-5.74-1.09s-0.85-4.77 1.02-6.17c0.86-0.64 7.22-7.45 13.45-13.37 4.65-4.41 9.28-8.33 11.89-9.58 2.34-1.13 4.19-0.77 5.27-0.17 1.48 0.84 3.13 2.61 2.43 6.37-0.45 2.4-2.62 3.96-4.85 3.48-0.45-0.1-0.87-0.27-1.24-0.5z" fill="#fff"/>
                    </g>
                    <g transform="translate(-739.81 455.98)">
                        <path d="m2341.3 1051.3c0.52-0.64 1.21-1.14 2.03-1.38 2.25-0.67 3.52 0.53 4.15 1.27 0.3 0.36 2.42 3.29-0.12 6.15-0.53 0.59-4.14 3.9-5.84 5.61-3.1 3.09-6.74 5.79-9.36 9.29-1.42 1.9-4.02 2.2-5.79 0.67-1.77-1.54-2.05-4.33-0.63-6.23 2.87-3.82 6.78-6.84 10.16-10.22 1.45-1.45 4.78-4.58 5.4-5.16zm-0.99 3.08c0.02 1.4 0.6 2.4 1.39 3.12-0.58-0.55-1.02-1.28-1.24-2.13-0.09-0.33-0.13-0.66-0.15-0.99zm2 3.6c0.65 0.44 1.7 0.93 3.22 0.48-1.13 0.33-2.29 0.12-3.22-0.48z" fill="#fff"/>
                    </g>
                    <g transform="translate(-739.81 455.98)">
                        <path d="m2375.3 1064.1c-0.23 1.96-1.67 3.59-3.58 3.85-0.88 0.12-1.73-0.07-2.46-0.49-2 1.85-5.44 5.15-7.65 7.26 0.08 0.25 0.14 0.51 0.18 0.78 0.34 2.42-1.2 4.68-3.45 5.06-3.52 0.58-5.22-0.96-5.94-2.02-0.94-1.36-1.51-3.81 0.22-6.66 2.18-3.59 10.71-10.73 12.79-12.51 0.36-0.31 5.72-4.05 6.79-4.59 2.95-1.51 4.84 0.75 5.16 1.18 0.54 0.73 0.9 1.64 0.9 2.77 0 1.67-0.52 2.89-1.29 3.89-0.35 0.45-1.1 1.05-1.67 1.48z" fill="#fff"/>
                    </g>
                    <g transform="translate(-739.81 455.98)">
                        <path d="m2380.3 1100.2v0.06c0 2.44-1.84 4.43-4.12 4.43-1.98 0-3.1-1.02-3.79-2.15-0.6-0.97-1.13-2.62-0.35-4.77 0.89-2.48 6.24-8.93 7.12-10.08 3.08-4.04 6.67-9.87 10.41-14.23 3.12-3.63 6.47-6.23 9.67-6.99 2.22-0.52 4.42 1 4.91 3.38 0.49 2.39-0.92 4.75-3.15 5.28-1.84 0.43-3.57 2.24-5.37 4.34-3.64 4.23-7.1 9.92-10.1 13.85-0.54 0.7-3.87 5.09-5.23 6.88zm-2.96-4.19c-0.34-0.12-0.72-0.18-1.16-0.18 0.4 0 0.79 0.06 1.16 0.18z" fill="#fff"/>
                    </g>
                    <g transform="translate(-739.81 455.98)">
                        <path d="m2431.3 1059c-0.02 0.02-0.04 0.04-0.06 0.05-6.12 5.27-27.63 34.01-32.61 39.3-0.72 0.76-3.63 2.95-6.18 5.19-0.93 0.82-2.11 2.12-2.48 2.53-0.46 1.91-2.08 3.32-4 3.32-2.27 0-4.12-1.99-4.12-4.43 0-1.23 0.5-2.96 1.86-4.69 2.29-2.94 8.08-7.11 9.12-8.21 4.46-4.75 22.12-28.14 30.32-37.01 2.15-2.32 3.9-3.76 4.82-4.22 1.23-0.6 2.26-0.56 2.99-0.4 2.22 0.51 3.65 2.86 3.18 5.25-0.32 1.63-1.45 2.87-2.84 3.32z" fill="#fff"/>
                    </g>
                    <g transform="translate(-739.81 455.98)">
                        <path d="m2431.5 1097.2c-1.43 2.02-12.25 17.3-14.15 19.8-0.76 0.99-8.82 13.98-10.02 15.9-0.5 1.84-2.08 3.18-3.95 3.18s-3.08-0.95-3.79-2.62c-0.19-0.47-0.79-2.05 0.19-4.21 1.25-2.76 10.28-16.67 11.19-17.86 2.12-2.79 12.5-18.23 14.97-20.79 2.95-3.06 5.83-0.83 6.44-0.08 1.51 1.83 1.35 4.63-0.35 6.25-0.17 0.16-0.34 0.3-0.53 0.43zm-24.73 31.94c-0.72-1.23-1.82-1.92-3.39-1.92 1.41 0 2.65 0.76 3.39 1.92zm21.9-31.31c-0.92-0.15-1.8-0.63-2.46-1.44 0.63 0.77 1.43 1.3 2.46 1.44z" fill="#fff"/>
                    </g>
                    <g transform="translate(-739.81 455.98)">
                        <path d="m2436 1133.7c-0.4 0.55-1.15 1.61-1.6 2.42-1.8 3.26-3.59 7-5.08 8.49-1.67 1.66-4.28 1.56-5.83-0.23s-1.46-4.59 0.21-6.26c0.69-0.69 1.36-2.21 2.16-3.77 1.19-2.32 2.49-4.77 3.81-6.41 2.33-2.92 5.05-3.76 7.51-2.86 2.16 0.79 3.31 3.3 2.58 5.62-0.57 1.79-2.1 2.93-3.76 3z" fill="#fff"/>
                    </g>
                
            
        </g>
    </g>
</svg>
